<svg width="913" height="2031" viewBox="0 0 913 2031" fill="none" xmlns="http://www.w3.org/2000/svg">
<path d="M450.526 6.02682L504.705 107.787C516.886 126.566 530.082 143.188 545.625 158.668C591.194 203.669 633.67 251.698 672.762 302.427C764.563 422.966 826.482 556.829 870.701 701.603C897.22 790.041 911.621 880.762 912.699 972.499C917.14 1246.76 823.119 1482.25 633.555 1677.97C602.721 1709.01 569.409 1737.48 533.952 1763.11C515.173 1763.11 506.291 1748.71 498.551 1735.45C484.456 1710.86 475.075 1683.86 470.891 1655.83C464.229 1622.65 459.852 1589.47 462.009 1555.21V1539.73C460.486 1536.43 443.928 13.8302 450.526 6.02682V6.02682Z" fill="#599636"/>
<path d="M450.526 2.6644C448.306 -1.77653 446.085 1.58589 443.865 3.74291C444.943 25.9475 437.203 45.7414 425.086 64.647C411.763 83.4258 394.126 97.8271 376.426 113.307C278.091 198.446 200.692 301.285 138.71 416.305C56.2353 571.103 13.7293 737.003 1.67535 911.659C-3.84409 974.656 21.5961 1196.96 41.4534 1261.1C95.6326 1431.37 192.952 1574.05 319.011 1697.89C349.971 1727.71 383.087 1755.37 417.346 1781.95C427.306 1781.95 428.385 1773.07 430.669 1766.47C435.036 1752.36 438.365 1737.94 440.629 1723.33L462.834 1557.5L450.526 2.6644Z" fill="#6CAC48"/>
<path d="M504.705 1830.49C506.926 1805.11 519.106 1784.05 532.366 1763.05C519.043 1757.53 509.146 1746.55 501.406 1734.31C494.732 1722.72 489.208 1710.5 484.911 1697.83C469.431 1651.39 466.132 1602.67 461.692 1555.21V1526.47C456.172 1530.91 455.03 1568.47 455.03 1574.05C451.802 1624.21 445.146 1674.09 435.109 1723.33C431.81 1743.25 429.59 1763.11 417.346 1780.81C417.346 1783.03 417.346 1785.25 418.424 1788.55C438.345 1847.17 443.801 1906.87 447.163 1967.71V1989.92C447.163 2016.43 446.085 2010.85 468.099 2019.73C476.981 2023.03 486.878 2024.17 495.76 2030.77C502.421 2030.77 503.5 2025.25 503.5 2020.81L500.201 1984.33V1882.57C499.122 1864.81 502.421 1847.17 504.642 1830.55L504.705 1830.49Z" fill="#C2BFBF"/>
</svg>
